# xmcd CD database file
#
# Track frame offsets:
#	150
#	13457
#	26085
#	39129
#	51897
#	67188
#	79639
#	94490
#	110358
#	124336
#	137531
#	149890
#	163535
#	176638
#	191398
#	205360
#	218435
#	230942
#	242980
#	255802
#	268862
#	281668
#	293666
#	305346
#
# Disc length: 4237 seconds
#
# Revision: 0
# Processed by: cddbd v1.5.2PL0 Copyright (c) Steve Scherf et al.
# Submitted via: CDex 1.70beta2
#
DISCID=6e108b18
DTITLE=Big Bill Broonzy - BD Blues 10 - Big Bill Broonzy 1930/1939-cd1
DYEAR=1900
DGENRE=Blues
TTITLE0=Saturday Night Rub
TTITLE1=I Can't Be Satisfied
TTITLE2=Bull Cow Blues
TTITLE3=Long Tall Mama
TTITLE4=Friendless Blues
TTITLE5=Mississippi River Blues
TTITLE6=C-C Rider
TTITLE7=The Southern Blues
TTITLE8=You May Need My Help Someday
TTITLE9=Keep Your Hands Off Her
TTITLE10=Good Liquor Gonna Carry Me Down
TTITLE11=Big Bill Blues (These Blues Keep Doggin' Me)
TTITLE12=Black Widow Spider
TTITLE13=Southern Flood Blues
TTITLE14=Horny Frog
TTITLE15=You Do Me Any Old Way
TTITLE16=Hattie Blues
TTITLE17=Trucking Little Woman
TTITLE18=It's Your Time Now
TTITLE19=New Shake-Em On Down
TTITLE20=W.P.A. Rag
TTITLE21=Trouble And Lying Woman
TTITLE22=Just A Dream (On My Mind)
TTITLE23=Don't You Be No Fool
EXTD=
EXTT0=
EXTT1=
EXTT2=
EXTT3=
EXTT4=
EXTT5=
EXTT6=
EXTT7=
EXTT8=
EXTT9=
EXTT10=
EXTT11=
EXTT12=
EXTT13=
EXTT14=
EXTT15=
EXTT16=
EXTT17=
EXTT18=
EXTT19=
EXTT20=
EXTT21=
EXTT22=
EXTT23=
PLAYORDER=
